<?xml version="1.0" standalone="no"?><!DOCTYPE svg PUBLIC "-//W3C//DTD SVG 1.1//EN" "http://www.w3.org/Graphics/SVG/1.1/DTD/svg11.dtd"><svg t="1765201201519" class="icon" viewBox="0 0 1024 1024" version="1.1" xmlns="http://www.w3.org/2000/svg" p-id="6401" xmlns:xlink="http://www.w3.org/1999/xlink" width="200" height="200"><path d="M200.234667 581.888c-21.205333 24.234667-58.154667 26.88-73.045334 26.88-27.648 0-48.810667-6.997333-62.890666-20.821333-13.354667-13.098667-20.394667-32.426667-20.864-57.429334-1.066667-57.941333 31.744-117.845333 88.490666-117.845333 27.093333 0 47.957333 19.413333 55.936 27.477333a14.378667 14.378667 0 0 0 12.032 4.224 16.213333 16.213333 0 0 0 10.282667-6.784c2.901333-3.712 5.76-10.112 5.888-17.109333s-2.432-14.677333-10.368-20.906667a112.725333 112.725333 0 0 0-71.168-25.216c-34.944 0-69.418667 16.042667-94.634667 44.074667-26.496 29.482667-40.661333 69.546667-39.893333 112.896 0.64 34.773333 12.032 64 32.981333 84.565333 22.528 22.101333 55.466667 33.749333 95.36 33.749334 46.805333 0 75.776-13.866667 91.904-25.472a24.917333 24.917333 0 0 0 10.24-19.456 29.952 29.952 0 0 0-8.874666-21.205334c-9.813333-10.581333-19.114667-4.309333-21.461334-1.578666z m212.053333-91.733333a318.762667 318.762667 0 0 0-29.781333-10.581334c-6.698667-2.048-13.184-3.882667-19.2-5.589333-39.338667-11.093333-43.818667-21.333333-43.392-29.013333 0.938667-15.488 21.973333-36.394667 57.685333-33.792 25.898667 1.92 43.306667 21.717333 51.413333 33.322666 6.357333 9.130667 15.829333 5.76 18.517334 4.053334a25.685333 25.685333 0 0 0 13.184-21.930667 26.709333 26.709333 0 0 0-8.917334-20.821333 113.237333 113.237333 0 0 0-142.805333-11.648c-19.456 13.781333-31.744 32.938667-32.853333 51.285333-2.730667 45.269333 43.306667 58.282667 76.928 67.754667 9.130667 2.602667 18.304 5.418667 28.458666 8.618666 48.64 15.232 50.048 30.592 46.592 54.058667-3.498667 23.722667-29.696 35.584-71.893333 32.469333-43.904-3.242667-62.464-26.026667-68.778667-38.442666-2.133333-4.181333-8.746667-10.581333-17.621333-6.656-21.930667 9.770667-20.181333 31.189333-11.093333 42.368 14.464 17.749333 49.066667 44.16 113.792 44.16 73.984 0 96.213333-37.333333 101.461333-69.973334 3.925333-24.405333-0.938667-43.861333-14.848-59.562666-10.069333-11.392-25.258667-21.12-46.976-30.122667z m289.152-92.373334c-25.514667-18.389333-59.434667-26.026667-100.693333-22.698666-30.378667 2.474667-54.357333 10.368-56.96 11.221333l-0.256 0.085333a18.645333 18.645333 0 0 0-12.672 16.170667l-20.053334 221.909333a14.378667 14.378667 0 0 0 10.538667 14.933334l3.072 0.853333 2.816 0.768 3.669333 0.896a337.664 337.664 0 0 0 69.973334 7.808c41.472 0 75.306667-9.813333 100.693333-29.184 32.597333-24.874667 48.682667-64 47.701333-116.266667-0.896-48.426667-16.981333-84.224-47.829333-106.453333z m-28.245333 190.336c-35.669333 27.264-89.173333 23.978667-114.218667 20.522667a5.461333 5.461333 0 0 1-4.650667-5.845333l16.938667-181.248a4.821333 4.821333 0 0 1 3.669333-4.266667c42.624-10.282667 75.818667-7.168 98.645334 9.301333 8.064 5.845333 14.848 14.122667 20.096 24.234667 7.509333 14.464 11.818667 32.64 12.202666 52.650667 0.725333 39.082667-10.24 67.541333-32.64 84.650666z m349.397333-143.957333a81.92 81.92 0 0 0-18.432-39.210667c-17.024-19.84-43.904-29.397333-78.848-29.397333-31.317333 0-58.538667 9.728-83.072 34.090667 0.298667-3.669333 0.810667-6.784 0.768-9.514667s-0.725333-4.949333-2.816-6.954667c-2.048-1.92-3.285333-2.858667-5.418667-3.285333-2.133333-0.426667-5.205333-0.341333-10.922666-0.256a25.045333 25.045333 0 0 0-25.130667 23.04s-13.866667 165.290667-18.261333 220.373333a13.141333 13.141333 0 0 0 3.114666 9.728 15.36 15.36 0 0 0 11.093334 5.589334h16.512a9.557333 9.557333 0 0 0 9.642666-8.746667l11.648-124.970667 0.597334-6.272a81.152 81.152 0 0 1 3.498666-17.578666c0.597333-1.92 1.28-3.925333 2.005334-5.973334 10.453333-29.610667 34.261333-73.386667 84.096-72.277333 35.84 0.768 61.824 19.413333 59.093333 47.530667-4.309333 44.117333-11.349333 132.266667-15.274667 176.64-0.810667 8.917333 7.765333 11.648 10.752 11.648h12.970667a18.858667 18.858667 0 0 0 18.944-17.237334s7.893333-90.752 12.544-143.018666l2.048-22.698667a83.584 83.584 0 0 0-1.109333-21.333333z" p-id="6402" fill="#707070"></path></svg>