<?xml version="1.0" standalone="no"?><!DOCTYPE svg PUBLIC "-//W3C//DTD SVG 1.1//EN" "http://www.w3.org/Graphics/SVG/1.1/DTD/svg11.dtd"><svg t="1765175787209" class="icon" viewBox="0 0 1024 1024" version="1.1" xmlns="http://www.w3.org/2000/svg" p-id="12364" xmlns:xlink="http://www.w3.org/1999/xlink" width="200" height="200"><path d="M817.0496 445.44H456.5504c-11.1104 0-27.7504 16.64-27.7504 27.7504v72.0896c0 16.64 16.64 27.7504 27.7504 27.7504h227.3792c16.64 0 27.7504 16.64 27.7504 27.6992v22.2208c0 49.92-44.3904 88.7296-88.7296 88.7296H334.4896c-16.64 0-27.6992-16.64-27.6992-27.7504V389.9904c-5.5808-44.3904 38.8096-88.7808 83.2-88.7808h421.5296c11.1104 0 27.7504-16.64 27.7504-27.6992v-66.56c5.5296-11.1104-11.1104-27.7504-22.2208-27.7504H401.0496A222.5152 222.5152 0 0 0 179.2 401.0496v416c0 11.1104 16.64 27.7504 27.7504 27.7504H645.12c110.9504 0 199.68-88.7296 199.68-199.68V473.1904c0-11.1104-16.64-27.7504-27.7504-27.7504z" fill="#8B8B8B" p-id="12365"></path></svg>